<svg width="16" height="16" viewBox="0 0 16 16" fill="none" xmlns="http://www.w3.org/2000/svg">
<path d="M3 11H2V8.99999H3V7.99999H2V5.99999H3V7.49999L4 7.99999L5 7.49999V5.99999H6V7.99999H5V8.99999H6V11H5V9.49999L4 8.99999L3 9.49999V11Z" fill="white" fill-opacity="0.87"/>
<path d="M8.92001 11C8.69334 11 8.39314 10.92 8.21981 10.76C8.05314 10.6 8.00001 10.3467 8.00001 9.99999V6H7V5H9.00001V9.69999C9.00001 9.80665 9.02668 9.88332 9.08001 9.92999C9.13334 9.97665 9.22334 9.99999 9.35001 9.99999H10V11H8.92001Z" fill="white" fill-opacity="0.87"/>
<path d="M14 9.74999C14 10.17 13.87 10.4833 13.61 10.69C13.3567 10.8967 12.9867 11 12.5 11H11V9.99999H12.45C12.63 9.99999 12.7667 9.96332 12.86 9.88999C12.9533 9.80999 13 9.69665 13 9.54999V9.44999C13 9.14999 12.8567 8.99999 12.57 8.99999H12.2C11.7333 8.99999 11.5333 8.89999 11.3 8.69999C11.0733 8.49332 11 8.16999 11 7.72999V7.25999C11 6.81332 11.0867 6.49332 11.34 6.29999C11.5933 6.09999 12.0067 5.99999 12.5 5.99999H14V6.99999H12.55C12.3833 6.99999 12.25 7.03999 12.15 7.11999C12.05 7.19332 12 7.30332 12 7.44999V7.55999C12 7.71332 12.0433 7.82665 12.13 7.89999C12.2233 7.97332 12.34 7.99999 12.48 7.99999H12.63C13.0767 7.99999 13.4167 8.11999 13.65 8.33999C13.8833 8.55332 14 8.87332 14 9.29999V9.74999Z" fill="white" fill-opacity="0.87"/>
<path fill-rule="evenodd" clip-rule="evenodd" d="M12 13.75H4C3.58579 13.75 3.25 13.4142 3.25 13H2C2 14.1046 2.89543 15 4 15H12C13.1046 15 14 14.1046 14 13H12.75C12.75 13.4142 12.4142 13.75 12 13.75ZM3.25 4V3C3.25 2.58579 3.58579 2.25 4 2.25H9.17157C9.37048 2.25 9.56125 2.32902 9.7019 2.46967L11.2322 4H13L10.5858 1.58579C10.2107 1.21071 9.70201 1 9.17157 1H4C2.89543 1 2 1.89543 2 3V4H3.25Z" fill="white" fill-opacity="0.87"/>
</svg>
