<svg width="16" height="16" viewBox="0 0 16 16" fill="none" xmlns="http://www.w3.org/2000/svg">
<path fill-rule="evenodd" clip-rule="evenodd" d="M8 8.73462L6.81184 9.03166L3.25195 11.0659L3.74809 11.9341L7.18821 9.96834L8 9.7654V8.73462Z" fill="#97B2C4"/>
<path fill-rule="evenodd" clip-rule="evenodd" d="M8.00002 5.67887V4.65447L6.31765 5.02834L2.75193 7.06589L3.24807 7.93413L6.68235 5.97168L8.00002 5.67887Z" fill="#97B2C4"/>
<path d="M10 8.5H14" stroke="#97B2C4"/>
<circle cx="12" cy="12" r="1.5" stroke="#97B2C4"/>
<path d="M14 5C14 6.10457 13.1046 7 12 7C10.8954 7 10 6.10457 10 5C10 3.5 12 2 12 2C12 2 14 3.5 14 5Z" fill="#09B37B"/>
<path d="M8.00006 1.99997L4.50837 2.76471L1.96643 6.70472L3.22724 11.8505L8.00004 14V12.9494L4.09533 11.1495L3.0336 6.89519L5.13683 3.63519L8.00006 2.99997V1.99997Z" fill="#97B2C4"/>
</svg>
