<svg width="16" height="16" viewBox="0 0 16 16" fill="none" xmlns="http://www.w3.org/2000/svg">
<path fill-rule="evenodd" clip-rule="evenodd" d="M8.46154 1.80768H7.53847L2.73078 13.3461C2.62457 13.601 2.74511 13.8938 3.00001 14C3.25491 14.1062 3.54764 13.9857 3.65385 13.7308L3.75001 13.5H12.25L12.3462 13.7308C12.4524 13.9857 12.7451 14.1062 13 14C13.2549 13.8938 13.3754 13.601 13.2692 13.3461L8.46154 1.80768ZM11.8333 12.5L11 10.5H5.00001L4.16667 12.5H11.8333ZM9.75001 7.49999L10.5833 9.49999H5.41667L6.25001 7.49999H9.75001ZM9.33334 6.49999L8.00001 3.29999L6.66667 6.49999H9.33334Z" fill="#97B2C4"/>
<path d="M8 2L8 14" stroke="#09B37B" stroke-width="2" stroke-linecap="round" stroke-linejoin="round"/>
</svg>
