<svg width="16" height="16" viewBox="0 0 16 16" fill="none" xmlns="http://www.w3.org/2000/svg">
<path d="M7.80902 2.5H6.17671L1.54404 12.7948C1.43072 13.0466 1.543 13.3426 1.79482 13.456C2.04664 13.5693 2.34264 13.457 2.45596 13.2052L2.77329 12.5H5.99999V11.5H3.22329L3.89829 10H5.99999V9H4.34829L4.79829 8H6V7H5.24829L6.82329 3.5H7.19098L8.55279 6.22361C8.67628 6.4706 8.97662 6.57071 9.22361 6.44721C9.4706 6.32372 9.57071 6.02338 9.44722 5.77639L7.80902 2.5Z" fill="#97B2C4"/>
<path d="M9 9C9 8.44772 9.44772 8 10 8H14C14.5523 8 15 8.44772 15 9V10C15 10.5523 14.5523 11 14 11H10C9.44772 11 9 10.5523 9 10V9Z" fill="#97B2C4"/>
<path fill-rule="evenodd" clip-rule="evenodd" d="M7 1C7.55228 1 8 1.44772 8 2L8 13C8 13.5523 7.55228 14 7 14C6.44772 14 6 13.5523 6 13L6 2C6 1.44772 6.44772 1 7 1Z" fill="#09B37B"/>
</svg>
