<svg width="16" height="16" viewBox="0 0 16 16" fill="none" xmlns="http://www.w3.org/2000/svg">
<path fill-rule="evenodd" clip-rule="evenodd" d="M11.75 7C11.75 9.62335 9.62335 11.75 7 11.75C4.37665 11.75 2.25 9.62335 2.25 7C2.25 4.37665 4.37665 2.25 7 2.25C9.62335 2.25 11.75 4.37665 11.75 7ZM10.7778 11.6616C9.74634 12.4985 8.43173 13 7 13C3.68629 13 1 10.3137 1 7C1 3.68629 3.68629 1 7 1C10.3137 1 13 3.68629 13 7C13 8.43173 12.4985 9.74634 11.6616 10.7778L14.4419 13.5581C14.686 13.8021 14.686 14.1979 14.4419 14.4419C14.1979 14.686 13.8021 14.686 13.5581 14.4419L10.7778 11.6616Z" fill="white" fill-opacity="0.87"/>
</svg>
