<svg width="16" height="16" viewBox="0 0 16 16" fill="none" xmlns="http://www.w3.org/2000/svg">
<path d="M3 4V4C3 2.89543 3.89543 2 5 2H13C14.1046 2 15 2.89543 15 4V12C15 13.1046 14.1046 14 13 14H5C3.89543 14 3 13.1046 3 12V12" stroke="white" stroke-opacity="0.87" stroke-width="1.25" stroke-linecap="round"/>
<path fill-rule="evenodd" clip-rule="evenodd" d="M1.25 5.5C1.25 5.15482 0.970178 4.875 0.625 4.875C0.279822 4.875 0 5.15482 0 5.5V6.00002C0 7.44977 1.17525 8.62502 2.625 8.62502H8.99112L7.55806 10.0581C7.31398 10.3022 7.31398 10.6979 7.55806 10.942C7.80214 11.186 8.19786 11.186 8.44194 10.942L10.5884 8.79551C11.0277 8.35617 11.0277 7.64386 10.5884 7.20452L8.44194 5.05808C8.19786 4.814 7.80214 4.814 7.55806 5.05808C7.31398 5.30215 7.31398 5.69788 7.55806 5.94196L8.99112 7.37502H2.625C1.86561 7.37502 1.25 6.75941 1.25 6.00002V5.5Z" fill="white" fill-opacity="0.87"/>
</svg>
