<svg width="100" height="100" viewBox="0 0 100 100" fill="none" xmlns="http://www.w3.org/2000/svg">
<g clip-path="url(#clip0_678_11464)">
<circle cx="50.0014" cy="49.9994" r="48.3979" fill="#1D9A6C"/>
<path d="M16.1377 70.3789V29.0198H32.4551C35.5786 29.0198 38.2443 29.5785 40.4523 30.696C42.6737 31.8 44.3634 33.3684 45.5212 35.4014C46.6925 37.4209 47.2782 39.7971 47.2782 42.5302C47.2782 45.2767 46.6858 47.6395 45.501 49.6186C44.3163 51.5842 42.5997 53.0921 40.3513 54.1422C38.1164 55.1924 35.4103 55.7174 32.233 55.7174H21.3076V48.6896H30.8194C32.4888 48.6896 33.8755 48.4607 34.9795 48.003C36.0835 47.5452 36.9047 46.8586 37.4433 45.9431C37.9953 45.0276 38.2713 43.89 38.2713 42.5302C38.2713 41.1569 37.9953 39.9991 37.4433 39.0567C36.9047 38.1142 36.0768 37.4007 34.9593 36.916C33.8553 36.4179 32.4619 36.1688 30.779 36.1688H24.8821V70.3789H16.1377ZM38.4732 51.5573L48.7524 70.3789H39.0992L29.0422 51.5573H38.4732ZM53.4578 70.3789V29.0198H70.0176C73.0603 29.0198 75.5981 29.4708 77.6311 30.3729C79.664 31.2749 81.1921 32.527 82.2153 34.1291C83.2385 35.7178 83.7501 37.5488 83.7501 39.6221C83.7501 41.2377 83.427 42.6581 82.7807 43.8832C82.1345 45.0949 81.2459 46.0912 80.115 46.8721C78.9976 47.6395 77.7186 48.1847 76.278 48.5079V48.9118C77.8532 48.9791 79.3274 49.4234 80.7007 50.2446C82.0874 51.0659 83.2116 52.217 84.0732 53.6979C84.9349 55.1654 85.3657 56.9157 85.3657 58.9486C85.3657 61.1431 84.8204 63.102 83.7299 64.8253C82.6528 66.5351 81.0575 67.8882 78.9437 68.8845C76.83 69.8808 74.2249 70.3789 71.1283 70.3789H53.4578ZM62.2022 63.2299H69.331C71.7678 63.2299 73.545 62.7654 74.6624 61.8365C75.7799 60.8941 76.3386 59.642 76.3386 58.0802C76.3386 56.9359 76.0626 55.9261 75.5106 55.051C74.9586 54.1759 74.171 53.4893 73.1478 52.9911C72.1381 52.493 70.9331 52.2439 69.5329 52.2439H62.2022V63.2299ZM62.2022 46.3268H68.6847C69.883 46.3268 70.9466 46.1181 71.8755 45.7008C72.8179 45.27 73.5584 44.6641 74.097 43.8832C74.6489 43.1024 74.9249 42.1667 74.9249 41.0762C74.9249 39.5817 74.3931 38.3768 73.3295 37.4613C72.2794 36.5458 70.785 36.088 68.8463 36.088H62.2022V46.3268Z" fill="white"/>
</g>
<defs>
<clipPath id="clip0_678_11464">
<rect width="100" height="100" fill="white"/>
</clipPath>
</defs>
</svg>
