<svg width="16" height="16" viewBox="0 0 16 16" fill="none" xmlns="http://www.w3.org/2000/svg">
<path fill-rule="evenodd" clip-rule="evenodd" d="M8 15C11.866 15 15 11.866 15 8C15 4.13401 11.866 1 8 1C4.13401 1 1 4.13401 1 8C1 11.866 4.13401 15 8 15ZM6.69199 6H5C5 4.2 6.28325 3 8.2 3C9.98564 3 11.2 4.14549 11.2 5.7C11.2 6.70942 10.7803 7.44145 9.9 8C9.06962 8.51817 8.74 8.74697 8.74 9.393L8.79 10H7.14L7.07 9.37954C6.98883 8.30283 7.4384 7.74509 8.3 7.2C9.10541 6.68183 9.3 6.42584 9.3 5.8C9.3 5.10584 8.79193 4.61507 8 4.61507C7.20807 4.61507 6.72945 5.25976 6.69199 6ZM9.10822 12.0472C9.10822 12.7538 8.67742 13.1913 7.97815 13.1913C7.27888 13.1913 6.84183 12.7538 6.84183 12.0472C6.84183 11.3339 7.27888 10.8965 7.97815 10.8965C8.67742 10.8965 9.10822 11.3339 9.10822 12.0472Z" fill="white"/>
</svg>
